# Blender 4.1.1
# www.blender.org
mtllib mushroom.mtl
o MushroomRed
v 0.000000 0.000000 -0.226808
v -0.086796 0.000000 -0.209543
v -0.160378 0.000000 -0.160378
v -0.209543 0.000000 -0.086796
v -0.226808 0.000000 0.000000
v -0.209543 0.000000 0.086796
v -0.160378 0.000000 0.160378
v -0.086796 0.000000 0.209543
v 0.000000 0.000000 0.226808
v 0.086796 0.000000 0.209543
v 0.160378 0.000000 0.160378
v 0.209543 0.000000 0.086796
v 0.226808 0.000000 0.000000
v 0.209543 0.000000 -0.086796
v 0.160378 0.000000 -0.160378
v 0.086796 0.000000 -0.209543
v 0.000000 0.230704 -0.135977
v -0.052036 0.230704 -0.125627
v -0.096150 0.230704 -0.096150
v -0.125627 0.230750 -0.052036
v -0.135977 0.230979 0.000000
v -0.125627 0.230746 0.052036
v -0.096150 0.230704 0.096150
v -0.052036 0.230704 0.125627
v 0.000000 0.230704 0.135977
v 0.052036 0.230704 0.125627
v 0.096150 0.230704 0.096150
v 0.125627 0.230704 0.052036
v 0.135977 0.230704 0.000000
v 0.125627 0.230704 -0.052036
v 0.096150 0.230704 -0.096150
v 0.052036 0.230704 -0.125627
v 0.002039 0.485886 -0.097053
v -0.035167 0.487143 -0.089665
v -0.066708 0.490316 -0.068627
v -0.087711 0.493949 -0.037140
v -0.095021 0.495674 0.000000
v -0.087624 0.494343 0.037141
v -0.066585 0.490871 0.068627
v -0.035099 0.487441 0.089665
v 0.002042 0.485917 0.097053
v 0.039182 0.485907 0.089665
v 0.070668 0.485907 0.068627
v 0.091707 0.485907 0.037141
v 0.099094 0.485874 0.000000
v 0.091707 0.485907 -0.037140
v 0.070668 0.485907 -0.068627
v 0.039182 0.485907 -0.089665
v 0.001522 0.747158 -0.084664
v -0.031178 0.742694 -0.078220
v -0.058766 0.738757 -0.059867
v -0.076993 0.737008 -0.032400
v -0.083135 0.737976 0.000000
v -0.076374 0.741799 0.032400
v -0.057842 0.748151 0.059867
v -0.030358 0.754564 0.078220
v 0.002042 0.758722 0.084665
v 0.034441 0.757437 0.078220
v 0.061908 0.754481 0.059867
v 0.080261 0.751653 0.032400
v 0.086706 0.750365 0.000000
v 0.080261 0.749865 -0.032400
v 0.061891 0.749578 -0.059867
v 0.034241 0.748719 -0.078220
v 0.002042 1.035579 -0.055474
v -0.018631 1.035705 -0.051362
v -0.036157 1.035874 -0.039652
v -0.047867 1.035391 -0.022127
v -0.051979 1.035062 -0.001454
v -0.047867 1.035391 0.019219
v -0.036157 1.035881 0.036745
v -0.018631 1.035902 0.048455
v 0.002042 1.035902 0.052567
v 0.022714 1.035902 0.048455
v 0.040240 1.035894 0.036745
v 0.051950 1.035715 0.019219
v 0.056062 1.035595 -0.001454
v 0.051950 1.035715 -0.022127
v 0.040240 1.035886 -0.039652
v 0.022714 1.035705 -0.051362
v 0.000559 0.710497 -0.493034
v -0.192018 0.715531 -0.455615
v -0.354240 0.714314 -0.349054
v -0.457909 0.677658 -0.189573
v -0.490850 0.659472 -0.001454
v -0.452120 0.706607 0.186666
v -0.345558 0.772699 0.346146
v -0.186078 0.804732 0.452707
v 0.002042 0.777919 0.487033
v 0.190161 0.749597 0.446346
v 0.349642 0.736917 0.339992
v 0.456203 0.726613 0.184174
v 0.493622 0.722252 -0.001454
v 0.456203 0.748207 -0.189573
v 0.349642 0.775064 -0.349054
v 0.190161 0.745232 -0.455615
v 0.002042 0.810020 -0.736721
v -0.281327 0.851115 -0.680752
v -0.521604 0.878174 -0.521367
v -0.679411 0.821748 -0.282828
v -0.733226 0.758138 -0.001454
v -0.677257 0.832519 0.279921
v -0.517871 0.896840 0.518459
v -0.279333 0.896840 0.677845
v 0.002042 0.850360 0.728451
v 0.283416 0.783974 0.664822
v 0.521954 0.783974 0.505436
v 0.681340 0.817044 0.274633
v 0.737309 0.814361 -0.001454
v 0.681340 0.862874 -0.282828
v 0.521954 0.896840 -0.521367
v 0.283416 0.861086 -0.680752
v 0.002042 1.069827 -0.605366
v -0.229896 1.091916 -0.559395
v -0.426567 1.106060 -0.428484
v -0.557115 1.061809 -0.232561
v -0.601877 1.019237 -0.001454
v -0.555900 1.067886 0.229653
v -0.424988 1.113953 0.425576
v -0.229065 1.113953 0.556488
v 0.002042 1.090701 0.599775
v 0.233149 1.056589 0.549869
v 0.429072 1.056589 0.418957
v 0.559983 1.070960 0.226653
v 0.605953 1.072033 -0.001454
v 0.559983 1.096961 -0.232561
v 0.429072 1.113953 -0.428484
v 0.233149 1.096067 -0.559395
v 0.002042 1.325854 -0.345683
v -0.129689 1.325854 -0.319480
v -0.241365 1.325854 -0.244860
v -0.315984 1.325854 -0.133184
v -0.342187 1.325854 -0.001454
v -0.315984 1.325854 0.130277
v -0.241365 1.325854 0.241953
v -0.129689 1.325854 0.316572
v 0.002042 1.325854 0.342775
v 0.133772 1.325854 0.316572
v 0.245448 1.325854 0.241953
v 0.320067 1.325854 0.130277
v 0.346270 1.325854 -0.001454
v 0.320067 1.325854 -0.133184
v 0.245448 1.325854 -0.244860
v 0.133772 1.325854 -0.319480
v 0.002042 1.528442 -0.035489
v -0.010983 1.528442 -0.032898
v -0.022025 1.528442 -0.025520
v -0.029403 1.528442 -0.014478
v -0.031993 1.528442 -0.001454
v -0.029403 1.528442 0.011571
v -0.022025 1.528442 0.022613
v -0.010983 1.528442 0.029991
v 0.002042 1.528442 0.032581
v 0.015066 1.528442 0.029991
v 0.026108 1.528442 0.022613
v 0.033486 1.528442 0.011571
v 0.036077 1.528442 -0.001454
v 0.033486 1.528442 -0.014478
v 0.026108 1.528442 -0.025520
v 0.015066 1.528442 -0.032898
vn 0.1820 0.3602 -0.9149
vn 0.1820 0.3602 0.9149
vn -0.5183 0.3602 -0.7756
vn 0.5183 0.3602 0.7756
vn -0.7756 0.3602 -0.5184
vn 0.7756 0.3602 0.5183
vn -0.9149 0.3600 -0.1826
vn 0.9149 0.3602 0.1820
vn -0.9149 0.3600 0.1826
vn 0.9149 0.3602 -0.1820
vn -0.7756 0.3602 0.5184
vn 0.7756 0.3602 -0.5183
vn -0.5183 0.3602 0.7756
vn 0.5183 0.3602 -0.7756
vn -0.1820 0.3602 0.9149
vn -0.1820 0.3602 -0.9149
vn 0.5498 0.1436 -0.8228
vn -0.1905 0.1490 0.9703
vn -0.1908 0.1491 -0.9703
vn 0.1929 0.1464 -0.9702
vn 0.1930 0.1464 0.9702
vn -0.5446 0.1504 -0.8251
vn 0.5498 0.1436 0.8228
vn -0.8188 0.1504 -0.5540
vn 0.8231 0.1415 0.5500
vn -0.9692 0.1503 -0.1952
vn 0.9711 0.1404 0.1931
vn -0.9691 0.1504 0.1955
vn 0.9711 0.1404 -0.1931
vn -0.8188 0.1505 0.5541
vn 0.8231 0.1415 -0.5500
vn -0.5445 0.1503 0.8252
vn -0.0000 -1.0000 -0.0000
vn 0.8316 0.0454 0.5535
vn -0.9803 0.0475 -0.1915
vn 0.9799 0.0458 0.1940
vn -0.9791 0.0482 0.1976
vn 0.9797 0.0459 -0.1952
vn -0.8304 0.0477 0.5551
vn 0.8304 0.0460 -0.5553
vn -0.5565 0.0463 0.8296
vn 0.5533 0.0463 -0.8317
vn -0.1965 0.0450 0.9795
vn -0.1959 0.0465 -0.9795
vn 0.1930 0.0466 -0.9801
vn 0.1957 0.0446 0.9797
vn -0.5542 0.0464 -0.8311
vn 0.5566 0.0449 0.8296
vn -0.8309 0.0468 -0.5544
vn -0.2008 0.0985 -0.9747
vn 0.1900 0.0988 -0.9768
vn 0.1965 0.1126 0.9740
vn -0.5575 0.0990 -0.8242
vn 0.5572 0.1110 0.8229
vn -0.8306 0.1002 -0.5477
vn 0.8299 0.1085 0.5473
vn -0.9765 0.1017 -0.1899
vn 0.9758 0.1060 0.1913
vn -0.9760 0.1033 0.1919
vn 0.9754 0.1037 -0.1948
vn -0.8327 0.1058 0.5436
vn 0.8269 0.1017 -0.5531
vn -0.5629 0.1092 0.8193
vn 0.5496 0.0999 -0.8294
vn -0.2023 0.1120 0.9729
vn 0.5957 -0.7972 -0.0982
vn -0.5042 -0.8379 0.2089
vn 0.3825 -0.8593 -0.3396
vn -0.2002 -0.8355 0.5117
vn -0.0175 -0.8622 -0.5063
vn 0.0961 -0.7995 0.5929
vn 0.0166 -0.8055 0.5923
vn -0.2212 -0.8360 -0.5022
vn 0.3304 -0.8036 0.4950
vn -0.3555 -0.8222 -0.4446
vn 0.5856 -0.7807 0.2179
vn -0.5015 -0.8141 -0.2929
vn 0.6476 -0.7605 0.0475
vn -0.5790 -0.8093 -0.0990
vn 0.6454 -0.7628 0.0410
vn -0.5791 -0.8151 0.0134
vn 0.2553 -0.9595 0.1191
vn -0.4145 -0.8805 -0.2300
vn 0.3473 -0.9339 0.0845
vn -0.3633 -0.8815 0.3014
vn 0.3579 -0.9086 -0.2153
vn -0.2443 -0.8613 0.4454
vn 0.3034 -0.8906 -0.3388
vn -0.1780 -0.9094 0.3759
vn 0.3467 -0.8888 -0.2997
vn -0.1987 -0.9360 0.2904
vn -0.1683 -0.8934 -0.4165
vn 0.2365 -0.9002 -0.3657
vn -0.1377 -0.9583 0.2505
vn -0.3324 -0.8439 -0.4211
vn 0.0739 -0.9847 0.1577
vn -0.3610 -0.8272 -0.4306
vn 0.1058 0.4608 -0.8812
vn 0.2752 0.4343 0.8577
vn -0.4522 0.4838 -0.7493
vn 0.5061 0.4127 0.7574
vn -0.7766 0.4840 -0.4033
vn 0.7205 0.4317 0.5427
vn -0.8866 0.4563 -0.0760
vn 0.8760 0.4492 0.1757
vn -0.8865 0.4580 0.0664
vn 0.8796 0.4631 -0.1086
vn -0.7764 0.4922 0.3937
vn 0.7480 0.4953 -0.4417
vn -0.4778 0.5103 0.7151
vn 0.4398 0.4945 -0.7497
vn -0.0932 0.4854 0.8693
vn -0.1183 0.4571 -0.8815
vn 0.5820 0.6926 0.4262
vn -0.7440 0.6647 -0.0675
vn 0.6928 0.7072 0.1411
vn -0.7425 0.6673 0.0582
vn 0.6834 0.7250 -0.0861
vn -0.6120 0.7320 0.2993
vn 0.5630 0.7557 -0.3345
vn -0.3553 0.7687 0.5318
vn 0.3334 0.7550 -0.5646
vn -0.0781 0.7489 0.6581
vn -0.0927 0.7201 -0.6876
vn 0.0842 0.7227 -0.6860
vn 0.2088 0.7025 0.6804
vn -0.3445 0.7472 -0.5683
vn 0.4078 0.6792 0.6102
vn -0.6174 0.7240 -0.3077
vn -0.5436 0.8323 0.1081
vn 0.5436 0.8323 -0.1081
vn -0.4608 0.8323 0.3079
vn 0.4608 0.8323 -0.3079
vn -0.3079 0.8323 0.4608
vn 0.3079 0.8323 -0.4608
vn -0.1081 0.8323 0.5436
vn -0.1081 0.8323 -0.5436
vn 0.1081 0.8323 -0.5436
vn 0.1081 0.8323 0.5436
vn -0.3079 0.8323 -0.4608
vn 0.3079 0.8323 0.4608
vn -0.4608 0.8323 -0.3079
vn 0.4608 0.8323 0.3079
vn -0.5436 0.8323 -0.1081
vn 0.5436 0.8323 0.1081
vn -0.0000 1.0000 -0.0000
vt 0.871348 0.744224
vt 0.871504 0.664378
vt 0.854231 0.663089
vt 0.842536 0.742074
vt 0.980049 0.735578
vt 0.956304 0.658686
vt 0.940497 0.661529
vt 0.953684 0.740319
vt 0.815668 0.333138
vt 0.842957 0.257432
vt 0.831178 0.253243
vt 0.796020 0.326150
vt 1.000000 0.729510
vt 0.968265 0.655049
vt 0.841784 0.339098
vt 0.858615 0.261005
vt 0.413525 0.814578
vt 0.413531 0.734732
vt 0.397474 0.734557
vt 0.386742 0.814286
vt 0.870394 0.343124
vt 0.875767 0.263419
vt 0.442341 0.812486
vt 0.430807 0.733478
vt 0.897141 0.344602
vt 0.891802 0.264305
vt 0.468801 0.808330
vt 0.446671 0.730987
vt 0.917953 0.343308
vt 0.904280 0.263529
vt 0.816084 0.737864
vt 0.838372 0.660565
vt 0.826342 0.657190
vt 0.796017 0.732235
vt 0.924918 0.743012
vt 0.923252 0.663143
vt 0.907192 0.663284
vt 0.898131 0.743246
vt 0.898131 0.743986
vt 0.887562 0.664236
vt 0.862309 0.579367
vt 0.850990 0.577565
vt 0.930838 0.577935
vt 0.918529 0.579087
vt 0.886099 0.580185
vt 0.874638 0.580287
vt 0.942120 0.575906
vt 0.861503 0.175367
vt 0.853095 0.172377
vt 0.950657 0.573310
vt 0.872678 0.177917
vt 0.410054 0.650778
vt 0.398593 0.650653
vt 0.884920 0.179640
vt 0.422384 0.649883
vt 0.896366 0.180272
vt 0.433707 0.648104
vt 0.905271 0.179718
vt 0.842403 0.575156
vt 0.907067 0.579188
vt 0.767774 0.779659
vt 0.778831 0.752967
vt 0.778831 0.724076
vt 0.767774 0.697384
vt 0.747345 0.676954
vt 0.720653 0.665898
vt 0.691761 0.665898
vt 0.665069 0.676954
vt 0.644640 0.697384
vt 0.633584 0.724076
vt 0.633584 0.752967
vt 0.644640 0.779659
vt 0.665069 0.800089
vt 0.691761 0.811145
vt 0.720653 0.811145
vt 0.747345 0.800089
vt 0.404457 0.562756
vt 0.394459 0.562647
vt 0.896422 0.092238
vt 0.885743 0.090735
vt 0.415213 0.561976
vt 0.906406 0.092790
vt 0.425091 0.560424
vt 0.914175 0.092307
vt 0.859785 0.489903
vt 0.852295 0.487802
vt 0.911098 0.491246
vt 0.901099 0.491334
vt 0.869659 0.491474
vt 0.921836 0.490241
vt 0.890412 0.492188
vt 0.880414 0.492277
vt 0.931677 0.488471
vt 0.894947 0.579077
vt 0.898131 0.491222
vt 0.386742 0.561665
vt 0.389747 0.649527
vt 0.875994 0.088511
vt 0.891664 0.401976
vt 0.885284 0.402032
vt 0.878422 0.401520
vt 0.917642 0.399177
vt 0.911363 0.400306
vt 0.896589 0.401359
vt 0.393940 0.472280
vt 0.389016 0.471653
vt 0.899811 0.001420
vt 0.893591 0.000000
vt 0.400319 0.472349
vt 0.906625 0.002378
vt 0.407182 0.471851
vt 0.912996 0.002730
vt 0.413485 0.470861
vt 0.917953 0.002422
vt 0.872122 0.400518
vt 0.867342 0.399177
vt 0.904511 0.400948
vt 0.898131 0.401003
vt 0.220767 0.245229
vt 0.101991 0.324592
vt 0.146269 0.368870
vt 0.225632 0.250094
vt 0.250094 0.225632
vt 0.368870 0.146269
vt 0.324592 0.101991
vt 0.245229 0.220767
vt 0.218133 0.238871
vt 0.078028 0.266740
vt 0.252728 0.231990
vt 0.392833 0.204121
vt 0.218133 0.231990
vt 0.078028 0.204121
vt 0.250094 0.245229
vt 0.368870 0.324592
vt 0.392833 0.266740
vt 0.252728 0.238871
vt 0.220767 0.225632
vt 0.101991 0.146269
vt 0.245229 0.250094
vt 0.324592 0.368870
vt 0.225632 0.220767
vt 0.146269 0.101991
vt 0.238871 0.252728
vt 0.266740 0.392833
vt 0.231990 0.218133
vt 0.204121 0.078028
vt 0.231990 0.252728
vt 0.204121 0.392833
vt 0.238871 0.218133
vt 0.266740 0.078028
vt 0.188600 -0.000000
vt 0.102070 0.035842
vt 0.188600 0.470861
vt 0.282261 0.470861
vt 0.282261 -0.000000
vt 0.102070 0.435019
vt 0.368791 0.035842
vt 0.035842 0.368791
vt 0.435019 0.102070
vt -0.000000 0.282261
vt 0.470861 0.188600
vt -0.000000 0.188600
vt 0.435019 0.368791
vt 0.470861 0.282261
vt 0.035842 0.102070
vt 0.368791 0.435019
vt 0.796020 0.086530
vt 0.718113 0.094897
vt 0.718113 0.171824
vt 0.796020 0.180190
vt 0.478197 0.665898
vt 0.554876 0.642074
vt 0.548850 0.571001
vt 0.470861 0.579367
vt 0.626248 0.332948
vt 0.549570 0.309123
vt 0.538435 0.363520
vt 0.612692 0.399177
vt 0.491753 0.732127
vt 0.566010 0.696471
vt 0.633585 0.246417
vt 0.555596 0.238051
vt 0.633584 0.485707
vt 0.711491 0.494073
vt 0.717428 0.423002
vt 0.640812 0.399177
vt 0.633585 0.152756
vt 0.555596 0.161123
vt 0.633584 0.579367
vt 0.711491 0.571001
vt 0.626248 0.066226
vt 0.549570 0.090052
vt 0.640812 0.665898
vt 0.717428 0.642074
vt 0.612692 0.000000
vt 0.538435 0.035657
vt 0.788791 0.266721
vt 0.712175 0.242897
vt 0.701204 0.297294
vt 0.775434 0.332951
vt 0.470861 0.485707
vt 0.548850 0.494073
vt 0.554876 0.423002
vt 0.478197 0.399177
vt 0.788791 0.000000
vt 0.712175 0.023825
vt 0.083835 0.828164
vt 0.130936 0.757673
vt 0.099930 0.726667
vt 0.029439 0.773768
vt 0.470861 0.177664
vt 0.470861 0.221513
vt 0.796017 0.554463
vt 0.796017 0.510614
vt 0.154907 0.470861
vt 0.171447 0.554011
vt 0.215295 0.554011
vt 0.231835 0.470861
vt 0.231835 0.857603
vt 0.215295 0.774453
vt 0.171446 0.774453
vt 0.154907 0.857603
vt 0.083835 0.500300
vt 0.130936 0.570791
vt 0.302907 0.828164
vt 0.255806 0.757673
vt 0.029439 0.554696
vt 0.099930 0.601797
vt 0.357303 0.773768
vt 0.286812 0.726667
vt 0.633584 0.554463
vt 0.633584 0.510615
vt 0.386742 0.625768
vt 0.303592 0.642308
vt 0.303592 0.686156
vt 0.386742 0.702696
vt 0.633585 0.111438
vt 0.633585 0.155286
vt -0.000000 0.702696
vt 0.083150 0.686156
vt 0.083150 0.642308
vt -0.000000 0.625768
vt 0.357303 0.554696
vt 0.286812 0.601797
vt 0.302907 0.500300
vt 0.255806 0.570791
vt 0.191203 0.653334
vt 0.195539 0.653334
vt 0.195539 0.675130
vt 0.191203 0.675130
vt 0.187198 0.654993
vt 0.199544 0.673471
vt 0.184132 0.658059
vt 0.202610 0.670405
vt 0.182473 0.662064
vt 0.204269 0.662064
vt 0.204269 0.666400
vt 0.182473 0.666400
vt 0.202610 0.658059
vt 0.184132 0.670405
vt 0.199544 0.654993
vt 0.187198 0.673471
s 0
usemtl Material.004
f 1/1/1 17/2/1 32/3/1 16/4/1
f 10/5/2 26/6/2 25/7/2 9/8/2
f 3/9/3 19/10/3 18/11/3 2/12/3
f 11/13/4 27/14/4 26/6/4 10/5/4
f 4/15/5 20/16/5 19/10/5 3/9/5
f 12/17/6 28/18/6 27/19/6 11/20/6
f 5/21/7 21/22/7 20/16/7 4/15/7
f 13/23/8 29/24/8 28/18/8 12/17/8
f 6/25/9 22/26/9 21/22/9 5/21/9
f 14/27/10 30/28/10 29/24/10 13/23/10
f 7/29/11 23/30/11 22/26/11 6/25/11
f 15/31/12 31/32/12 30/33/12 14/34/12
f 8/35/13 24/36/13 23/37/13 7/38/13
f 16/4/14 32/3/14 31/32/14 15/31/14
f 9/8/15 25/7/15 24/36/15 8/35/15
f 2/39/16 18/40/16 17/2/16 1/1/16
f 32/3/17 48/41/17 47/42/17 31/32/17
f 25/7/18 41/43/18 40/44/18 24/36/18
f 18/40/19 34/45/19 33/46/19 17/2/19
f 17/2/20 33/46/20 48/41/20 32/3/20
f 26/6/21 42/47/21 41/43/21 25/7/21
f 19/10/22 35/48/22 34/49/22 18/11/22
f 27/14/23 43/50/23 42/47/23 26/6/23
f 20/16/24 36/51/24 35/48/24 19/10/24
f 28/18/25 44/52/25 43/53/25 27/19/25
f 21/22/26 37/54/26 36/51/26 20/16/26
f 29/24/27 45/55/27 44/52/27 28/18/27
f 22/26/28 38/56/28 37/54/28 21/22/28
f 30/28/29 46/57/29 45/55/29 29/24/29
f 23/30/30 39/58/30 38/56/30 22/26/30
f 31/32/31 47/42/31 46/59/31 30/33/31
f 24/36/32 40/44/32 39/60/32 23/37/32
f 2/61/33 1/62/33 16/63/33 15/64/33 14/65/33 13/66/33 12/67/33 11/68/33 10/69/33 9/70/33 8/71/33 7/72/33 6/73/33 5/74/33 4/75/33 3/76/33
f 44/52/34 60/77/34 59/78/34 43/53/34
f 37/54/35 53/79/35 52/80/35 36/51/35
f 45/55/36 61/81/36 60/77/36 44/52/36
f 38/56/37 54/82/37 53/79/37 37/54/37
f 46/57/38 62/83/38 61/81/38 45/55/38
f 39/58/39 55/84/39 54/82/39 38/56/39
f 47/42/40 63/85/40 62/86/40 46/59/40
f 40/44/41 56/87/41 55/88/41 39/60/41
f 48/41/42 64/89/42 63/85/42 47/42/42
f 41/43/43 57/90/43 56/87/43 40/44/43
f 34/45/44 50/91/44 49/92/44 33/46/44
f 33/46/45 49/92/45 64/89/45 48/41/45
f 42/47/46 58/93/46 57/90/46 41/43/46
f 35/94/47 51/95/47 50/91/47 34/45/47
f 43/53/48 59/78/48 58/96/48 42/97/48
f 36/51/49 52/80/49 51/98/49 35/48/49
f 50/91/50 66/99/50 65/100/50 49/92/50
f 49/92/51 65/100/51 80/101/51 64/89/51
f 58/93/52 74/102/52 73/103/52 57/90/52
f 51/95/53 67/104/53 66/99/53 50/91/53
f 59/78/54 75/105/54 74/106/54 58/96/54
f 52/80/55 68/107/55 67/108/55 51/98/55
f 60/77/56 76/109/56 75/105/56 59/78/56
f 53/79/57 69/110/57 68/107/57 52/80/57
f 61/81/58 77/111/58 76/109/58 60/77/58
f 54/82/59 70/112/59 69/110/59 53/79/59
f 62/83/60 78/113/60 77/111/60 61/81/60
f 55/84/61 71/114/61 70/112/61 54/82/61
f 63/85/62 79/115/62 78/116/62 62/86/62
f 56/87/63 72/117/63 71/118/63 55/88/63
f 64/89/64 80/101/64 79/115/64 63/85/64
f 57/90/65 73/103/65 72/117/65 56/87/65
f 71/119/66 87/120/66 86/121/66 70/122/66
f 79/123/67 95/124/67 94/125/67 78/126/67
f 72/127/68 88/128/68 87/120/68 71/119/68
f 80/129/69 96/130/69 95/124/69 79/123/69
f 73/131/70 89/132/70 88/128/70 72/127/70
f 66/133/71 82/134/71 81/135/71 65/136/71
f 65/136/72 81/135/72 96/130/72 80/129/72
f 74/137/73 90/138/73 89/132/73 73/131/73
f 67/139/74 83/140/74 82/134/74 66/133/74
f 75/141/75 91/142/75 90/138/75 74/137/75
f 68/143/76 84/144/76 83/140/76 67/139/76
f 76/145/77 92/146/77 91/142/77 75/141/77
f 69/147/78 85/148/78 84/144/78 68/143/78
f 77/149/79 93/150/79 92/146/79 76/145/79
f 70/122/80 86/121/80 85/148/80 69/147/80
f 78/126/81 94/125/81 93/150/81 77/149/81
f 92/146/82 108/151/82 107/152/82 91/142/82
f 85/148/83 101/153/83 100/154/83 84/144/83
f 93/150/84 109/155/84 108/151/84 92/146/84
f 86/121/85 102/156/85 101/153/85 85/148/85
f 94/125/86 110/157/86 109/155/86 93/150/86
f 87/120/87 103/158/87 102/156/87 86/121/87
f 95/124/88 111/159/88 110/157/88 94/125/88
f 88/128/89 104/160/89 103/158/89 87/120/89
f 96/130/90 112/161/90 111/159/90 95/124/90
f 89/132/91 105/162/91 104/160/91 88/128/91
f 82/134/92 98/163/92 97/164/92 81/135/92
f 81/135/93 97/164/93 112/161/93 96/130/93
f 90/138/94 106/165/94 105/162/94 89/132/94
f 83/140/95 99/166/95 98/163/95 82/134/95
f 91/142/96 107/152/96 106/165/96 90/138/96
f 84/144/97 100/154/97 99/166/97 83/140/97
f 97/167/98 113/168/98 128/169/98 112/170/98
f 106/171/99 122/172/99 121/173/99 105/174/99
f 99/175/100 115/176/100 114/177/100 98/178/100
f 107/179/101 123/180/101 122/172/101 106/171/101
f 100/181/102 116/182/102 115/176/102 99/175/102
f 108/183/103 124/184/103 123/185/103 107/186/103
f 101/187/104 117/188/104 116/182/104 100/181/104
f 109/189/105 125/190/105 124/184/105 108/183/105
f 102/191/106 118/192/106 117/188/106 101/187/106
f 110/193/107 126/194/107 125/190/107 109/189/107
f 103/195/108 119/196/108 118/192/108 102/191/108
f 111/197/109 127/198/109 126/199/109 110/200/109
f 104/201/110 120/202/110 119/203/110 103/204/110
f 112/170/111 128/169/111 127/198/111 111/197/111
f 105/174/112 121/173/112 120/202/112 104/201/112
f 98/205/113 114/206/113 113/168/113 97/167/113
f 124/207/114 140/208/114 139/209/114 123/210/114
f 117/188/115 133/211/115 132/212/115 116/182/115
f 125/190/116 141/213/116 140/214/116 124/184/116
f 118/215/117 134/216/117 133/217/117 117/218/117
f 126/219/118 142/220/118 141/221/118 125/222/118
f 119/223/119 135/224/119 134/216/119 118/215/119
f 127/225/120 143/226/120 142/220/120 126/219/120
f 120/227/121 136/228/121 135/224/121 119/223/121
f 128/229/122 144/230/122 143/226/122 127/225/122
f 121/173/123 137/231/123 136/232/123 120/202/123
f 114/233/124 130/234/124 129/235/124 113/236/124
f 113/168/125 129/237/125 144/238/125 128/169/125
f 122/239/126 138/240/126 137/241/126 121/242/126
f 115/243/127 131/244/127 130/234/127 114/233/127
f 123/210/128 139/209/128 138/240/128 122/239/128
f 116/245/129 132/246/129 131/244/129 115/243/129
f 134/216/130 150/247/130 149/248/130 133/217/130
f 142/220/131 158/249/131 157/250/131 141/221/131
f 135/224/132 151/251/132 150/247/132 134/216/132
f 143/226/133 159/252/133 158/249/133 142/220/133
f 136/228/134 152/253/134 151/251/134 135/224/134
f 144/230/135 160/254/135 159/252/135 143/226/135
f 137/241/136 153/255/136 152/253/136 136/228/136
f 130/234/137 146/256/137 145/257/137 129/235/137
f 129/235/138 145/257/138 160/254/138 144/230/138
f 138/240/139 154/258/139 153/255/139 137/241/139
f 131/244/140 147/259/140 146/256/140 130/234/140
f 139/209/141 155/260/141 154/258/141 138/240/141
f 132/246/142 148/261/142 147/259/142 131/244/142
f 140/208/143 156/262/143 155/260/143 139/209/143
f 133/217/144 149/248/144 148/261/144 132/246/144
f 141/221/145 157/250/145 156/262/145 140/208/145
f 146/256/146 147/259/146 148/261/146 149/248/146 150/247/146 151/251/146 152/253/146 153/255/146 154/258/146 155/260/146 156/262/146 157/250/146 158/249/146 159/252/146 160/254/146 145/257/146
