# Blender 4.1.1
# www.blender.org
mtllib cloud2.mtl
o Mball.012
v 0.667777 0.238142 -3.470017
v 0.117526 0.618103 -3.625522
v 0.424153 0.877477 -2.538678
v 1.124764 0.025305 -1.936353
v 0.699109 -0.449447 -3.373592
v 0.803099 -0.640357 -2.058929
v 1.006146 -0.434269 -0.853045
v 1.109842 -0.382652 0.256769
v 0.762221 -0.704591 0.718677
v 0.419847 -1.123347 0.001828
v -0.650826 -1.304363 0.015860
v -0.390781 -1.153085 -0.867710
v -0.387306 -1.213497 -1.781953
v 0.009716 -0.967986 -2.508867
v 0.047394 -0.926681 -3.342044
v -1.236440 -1.009209 -2.080040
v -1.285776 -0.880710 -3.334570
v -1.421138 -0.420644 -3.856459
v -0.732908 -0.208439 -4.034377
v 0.031726 -0.648483 -3.799177
v 0.407436 -0.214638 -3.858226
v 0.105765 0.291117 -3.922206
v -1.334087 0.508802 -3.731920
v -1.168131 0.957342 -2.576004
v 0.055969 1.871674 -1.503950
v -0.033984 2.012144 -0.811942
v 0.036459 1.619591 -0.015717
v 0.420421 1.387513 0.684598
v -0.528152 1.454326 0.911424
v -1.340897 0.715169 1.497189
v -1.438154 0.050810 2.252298
v -0.590269 -0.377587 2.532035
v -1.261696 -0.822587 2.234947
v 0.024440 -0.982853 2.172194
v 0.029278 0.318458 2.261015
v 0.071366 0.790939 1.544189
v 0.638585 0.818089 1.192083
v 0.614493 0.198547 1.951862
v 0.972818 0.014632 1.073362
v 0.499435 -0.410518 2.336087
v 0.856230 -0.461430 1.782828
v 0.435162 -1.096701 1.696574
v -0.698464 -1.254236 1.699573
v 0.093865 -1.119035 0.678388
v -1.647153 -0.902364 1.736732
v -1.781305 0.034965 1.563773
v -1.886886 -0.423899 0.860655
v -2.013479 -0.550455 -0.035301
v -1.929202 -0.491785 -0.845420
v -1.384427 -1.062818 -0.110783
v -1.269737 -1.036420 0.736736
v 1.152477 0.669350 0.516962
v -1.402275 1.529724 -0.106692
v -1.303129 1.902056 -0.857088
v -1.335771 1.766652 -1.504682
v -1.903335 1.335734 -1.262622
v -2.032134 0.764815 -0.439056
v 1.038968 0.988574 -1.437609
v -1.755584 0.565390 -2.436092
v -1.832252 -0.627460 -1.888268
v -1.780280 -0.445796 -3.323575
v -1.795894 0.171095 -3.366757
v -2.048792 -0.047776 -1.989210
v 0.457114 -0.980304 -1.635788
v 0.694088 1.714167 -1.171644
v -1.585564 1.282002 0.721369
v -2.154870 0.403601 0.393073
v 1.062929 0.766324 -0.337586
vn 0.9032 -0.4217 -0.0800
vn 0.7343 -0.6775 -0.0425
vn -0.0513 -0.5387 -0.8410
vn 0.1462 -0.2566 -0.9554
vn 0.8486 -0.0354 -0.5279
vn 0.0526 0.7294 -0.6821
vn 0.2003 0.7649 0.6122
vn 0.3385 0.7240 0.6011
vn -0.3233 -0.9435 0.0731
vn 0.9625 -0.2704 -0.0232
vn 0.8419 -0.4160 0.3437
vn -0.7979 0.5466 0.2541
vn 0.4526 0.7180 -0.5288
vn 0.7264 0.5129 -0.4574
vn -0.6457 0.5573 -0.5220
vn -0.5594 0.6589 -0.5030
vn 0.4922 -0.8295 -0.2639
vn 0.5100 -0.7269 -0.4599
vn 0.2885 -0.9438 -0.1612
vn -0.0736 0.3345 -0.9395
vn -0.5998 -0.6710 -0.4359
vn -0.0594 0.7920 -0.6076
vn -0.8444 -0.0996 0.5264
vn -0.6337 0.7630 -0.1276
vn -0.7433 0.6331 0.2159
vn 0.9940 -0.0793 0.0752
vn 0.9956 -0.0175 -0.0922
vn 0.3100 0.9388 -0.1503
vn -0.9259 0.3606 -0.1127
vn 0.7011 0.7130 0.0074
vn 0.9959 0.0905 -0.0034
vn 0.4972 0.7948 0.3479
vn 0.2136 0.9563 0.1998
vn 0.5000 -0.8303 0.2462
vn -0.6660 0.4865 0.5655
vn -0.9723 -0.1002 0.2114
vn 0.3554 0.6941 0.6260
vn -0.0603 0.6599 0.7490
vn -0.9927 -0.1021 0.0642
vn -0.6356 -0.7624 -0.1213
vn -0.8325 0.3939 0.3897
vn -0.6880 -0.7165 0.1154
vn -0.6053 -0.7718 0.1946
vn 0.7962 0.2498 0.5510
vn 0.8289 -0.5568 0.0540
vn 0.8350 0.1720 0.5227
vn 0.6920 -0.5258 0.4946
vn 0.4248 0.7442 0.5155
vn 0.5243 -0.6063 0.5979
vn -0.1410 0.7522 0.6436
vn -0.9618 -0.2173 0.1666
vn -0.7635 0.5304 0.3683
vn 0.5552 0.5479 -0.6258
vn 0.8161 0.5534 -0.1664
vn 0.9019 -0.4117 -0.1311
vn 0.7029 -0.7113 0.0032
vn 0.7376 -0.6742 -0.0376
vn 0.7200 -0.6914 0.0600
vn 0.5568 -0.5650 -0.6089
vn 0.0543 0.9677 -0.2463
vn 0.9585 0.0037 -0.2851
vn -0.2335 0.7486 0.6206
vn -0.3527 -0.0898 0.9314
vn 0.8965 0.3291 0.2968
vn 0.4910 0.3966 0.7757
vn -0.3088 -0.8725 0.3786
vn -0.0730 -0.8126 0.5783
vn 0.1519 -0.3866 0.9097
vn 0.5272 -0.8348 -0.1584
vn 0.9740 -0.0908 0.2076
vn -0.9292 -0.3609 -0.0793
vn -0.0931 0.8897 0.4469
vn -0.0442 0.9335 -0.3559
vn -0.5772 0.7858 -0.2221
vn -0.6940 0.6732 -0.2552
vn -0.9889 0.1358 -0.0605
vn -0.9337 -0.3558 -0.0405
vn -0.9818 -0.0379 -0.1863
vn 0.6182 0.2756 -0.7361
vn 0.5975 0.7254 -0.3417
vn 0.9101 0.4095 0.0629
vn -0.2915 0.1538 -0.9441
vn 0.6889 0.6112 0.3897
vn 0.8327 0.5112 0.2127
vn 0.8118 0.3239 -0.4859
vn -0.3479 -0.9375 -0.0056
vn -0.7755 0.6311 0.0172
vn 0.2552 -0.9647 0.0647
vn 0.9945 -0.0022 -0.1045
vn 0.9132 0.2526 0.3196
vn -0.0835 0.8970 0.4341
vn -0.9534 -0.1665 0.2518
vn -0.0630 0.8350 0.5467
vn -0.0440 -0.9482 0.3147
vn -0.0828 0.4247 0.9015
vn 0.0037 0.6719 -0.7407
vn -0.0246 -0.5292 0.8482
vn 0.1305 -0.9328 0.3360
vn -0.6323 -0.7742 -0.0303
vn -0.6078 -0.7888 -0.0915
vn -0.0682 -0.8016 -0.5940
vn 0.1524 -0.0341 -0.9877
vn -0.7501 0.0693 -0.6577
vn -0.0754 0.9760 -0.2042
vn -0.8514 0.5152 0.0981
vn 0.5074 -0.8549 -0.1081
vn -0.0155 -0.9966 -0.0810
vn -0.1226 0.9765 0.1775
vn -0.0948 -0.9263 -0.3647
vn -0.9298 0.2430 -0.2766
vn 0.1271 0.9602 0.2485
vn 0.1416 -0.9850 -0.0983
vn -0.1593 -0.9872 -0.0060
vn -0.9886 -0.0567 -0.1391
vn -0.2664 -0.9339 -0.2383
vn 0.1672 -0.9821 0.0868
vn 0.1375 -0.9902 -0.0244
vn 0.1791 0.2144 0.9602
vn -0.0672 -0.9810 -0.1820
vn -0.7110 -0.6805 -0.1771
s 0
f 4//1 7//1 6//1
f 64//2 7//2 10//2
f 19//3 20//3 18//3
f 19//4 21//4 20//4
f 1//5 5//5 21//5
f 3//6 24//6 25//6
f 36//7 28//7 29//7
f 38//8 37//8 36//8
f 11//9 51//9 50//9
f 9//10 39//10 41//10
f 9//11 8//11 39//11
f 53//12 56//12 57//12
f 3//13 25//13 65//13
f 58//14 3//14 65//14
f 55//15 24//15 56//15
f 56//16 24//16 59//16
f 6//17 64//17 14//17
f 20//18 5//18 15//18
f 14//19 64//19 13//19
f 22//20 19//20 23//20
f 61//21 18//21 17//21
f 25//22 24//22 55//22
f 31//23 46//23 45//23 33//23
f 55//24 56//24 54//24
f 56//25 53//25 54//25
f 4//26 68//26 7//26
f 52//27 8//27 7//27
f 25//28 26//28 65//28
f 62//29 63//29 59//29
f 52//30 68//30 28//30
f 58//31 68//31 4//31
f 26//32 27//32 65//32
f 28//33 65//33 27//33
f 10//34 9//34 44//34
f 30//35 66//35 46//35
f 46//36 47//36 45//36
f 36//37 37//37 28//37
f 36//38 29//38 30//38
f 57//39 63//39 49//39
f 49//40 50//40 48//40
f 67//41 46//41 66//41
f 51//42 47//42 50//42
f 48//43 50//43 47//43
f 52//44 37//44 39//44
f 9//45 41//45 42//45
f 41//46 38//46 40//46
f 41//47 40//47 42//47
f 38//48 36//48 35//48
f 42//49 40//49 34//49
f 35//50 30//50 31//50
f 67//51 48//51 47//51
f 46//52 31//52 30//52
f 2//53 1//53 22//53
f 3//54 4//54 1//54
f 6//55 5//55 4//55
f 64//56 6//56 7//56
f 10//57 7//57 8//57
f 10//58 8//58 9//58
f 21//59 5//59 20//59
f 24//60 3//60 2//60
f 4//61 5//61 1//61
f 30//62 29//62 66//62
f 33//63 32//63 31//63
f 39//64 37//64 38//64
f 38//65 35//65 40//65
f 43//66 33//66 45//66
f 33//67 43//67 34//67
f 32//68 34//68 40//68
f 42//69 44//69 9//69
f 52//70 39//70 8//70
f 63//71 61//71 60//71
f 54//72 27//72 26//72
f 24//73 2//73 23//73
f 23//74 59//74 24//74
f 23//75 62//75 59//75
f 56//76 63//76 57//76
f 60//77 49//77 63//77
f 63//78 62//78 61//78
f 21//79 22//79 1//79
f 1//80 2//80 3//80
f 65//81 68//81 58//81
f 23//82 19//82 18//82
f 37//83 52//83 28//83
f 65//84 28//84 68//84
f 4//85 3//85 58//85
f 45//86 51//86 43//86
f 53//87 57//87 66//87
f 13//88 64//88 12//88
f 68//89 52//89 7//89
f 41//90 39//90 38//90
f 27//91 54//91 53//91
f 46//92 67//92 47//92
f 36//93 30//93 35//93
f 51//94 11//94 44//94
f 35//95 31//95 32//95
f 23//96 2//96 22//96
f 33//97 34//97 32//97
f 43//98 42//98 34//98
f 60//99 16//99 50//99 49//99
f 61//100 17//100 16//100 60//100
f 20//101 15//101 17//101 18//101
f 21//102 19//102 22//102
f 18//103 61//103 62//103 23//103
f 25//104 55//104 54//104 26//104
f 67//105 66//105 57//105
f 15//106 5//106 6//106 14//106
f 15//107 14//107 16//107 17//107
f 29//108 27//108 53//108 66//108
f 16//109 14//109 13//109
f 63//110 56//110 59//110
f 29//111 28//111 27//111
f 12//112 64//112 10//112 11//112
f 16//113 13//113 12//113 50//113
f 57//114 49//114 48//114 67//114
f 11//115 50//115 12//115
f 44//116 11//116 10//116
f 42//117 43//117 44//117
f 35//118 32//118 40//118
f 43//119 51//119 44//119
f 47//120 51//120 45//120
